<svg xmlns="http://www.w3.org/2000/svg" id="Layer_1" data-name="Layer 1" viewBox="20 60 870 570"><defs><style>      .cls-1 {        fill: #2a476b;      }      .cls-1, .cls-2, .cls-3, .cls-4 {        stroke-width: 0px;      }      .cls-5 {        letter-spacing: 0em;      }      .cls-2 {        fill: #83a33f;      }      .cls-6 {        letter-spacing: 0em;      }      .cls-3 {        fill: #84a33f;      }      .cls-7 {        letter-spacing: -.01em;      }      .cls-4, .cls-8 {        fill: #29466a;      }      .cls-8 {        font-family: MyriadPro-It, 'Myriad Pro';        font-size: 43.68px;        font-style: italic;      }    </style></defs><g><path class="cls-2" d="M250.8,161.3c-.86,2.68-1.62,5.28-2.51,7.83-5.24,15.06-8.97,30.44-8.55,46.5.43,16.45,5.19,31.18,18.1,42.41,5.26,4.58,11.66,5.45,18.19,5.71,13.18.52,25.46-3.18,37.16-8.8,24-11.54,46.52-25.69,69.29-39.4,37.86-22.81,74.77-47.12,112.02-70.91,12.96-8.28,26.46-15.55,40.44-21.95,21.3-9.74,42.23-7.91,62.87,2.08,11.97,5.79,22.51,13.37,30.14,24.55,4.15,6.09,6.78,12.76,7.95,20.01.17,1.07.57,2.41-.39,3.19-.95.78-1.83-.37-2.69-.72-13.11-5.36-25.95-3.3-38.68,1.38-14.02,5.15-25.81,14.1-37.8,22.63-45.51,32.4-92.72,62.06-141.56,89.18-19.99,11.1-40.15,21.79-61.89,29.16-18.21,6.17-36.78,10.4-56.15,9.57-19.52-.83-36.69-6.5-48.55-23.58-7.52-10.84-12.52-22.62-15.93-35.27-9.86-36.57-2.79-70.4,16.3-102.34.38-.64.71-1.34,2.24-1.23Z"></path><path class="cls-4" d="M664.61,489.03c-.75,0-1.5,0-2.25,0-3.37-.02-7.11.87-10.02-.29-3.4-1.35-1.8-5.88-3-8.88-2.5-6.26-6.47-11.09-12.71-13.52-14.06-5.47-28.15-5.18-41.76,1.4-9.61,4.65-14.06,14.16-11.84,23.88,1.61,7.05,6.96,10.72,12.98,13.53,10.5,4.89,21.94,6.59,33.07,9.29,10.67,2.59,21.45,4.8,31.46,9.53,11.15,5.27,20.07,12.76,23.47,25.17,6.69,24.4-4.63,47.66-28.32,58.07-18.8,8.26-38.49,8.86-58.43,5.88-12.34-1.84-23.68-6.06-32.59-15.32-10.03-10.42-13.3-23.39-14.07-37.31-.09-1.62.61-2.2,2.19-2.19,7.87.04,15.74.04,23.61-.01,1.54-.01,2.33.59,2.52,2.07.03.25.12.49.14.73,1.52,16.99,11.87,25.34,27.73,28.08,12.94,2.24,25.67,1.75,37.64-4.34,10.21-5.19,14.99-14.76,12.9-24.95-1.08-5.26-4.25-8.93-8.67-11.65-7.05-4.33-15.08-5.79-22.94-7.75-13.55-3.38-27.34-5.89-40.4-11.06-3.24-1.28-6.42-2.74-9.52-4.34-17.15-8.89-22.58-22.65-20.96-41.05,1.66-18.85,12.08-31.83,29.21-38.87,22.53-9.27,45.61-9.71,68.17-.21,17.71,7.46,25.54,22.18,26.75,40.86.15,2.4-.62,3.4-3.14,3.29-3.74-.17-7.49-.04-11.24-.04Z"></path><path class="cls-4" d="M317.21,464.26c5.57-6,11.08-11.56,17.85-15.65,20.43-12.36,41.51-14.04,63.07-3.12,7.35,3.72,12.56,9.84,16.49,16.95,2.35,4.25,2.12,9.2,2.6,13.88.92,9.07,1.07,18.18,1.06,27.31-.06,33.11-.09,66.22.07,99.33.02,3.71-1.03,4.62-4.59,4.45-6.36-.3-12.75-.25-19.11-.02-3.15.12-3.98-.88-3.98-3.99.1-35.86.07-71.72.06-107.58,0-6.93-.74-13.73-4.1-19.96-4.82-8.94-12.78-13.06-22.5-14.08-26.28-2.77-44.72,18.98-44.78,41.94-.09,33.11-.07,66.22.05,99.33.01,3.39-.8,4.51-4.31,4.36-6.61-.3-13.25-.24-19.86-.02-3.04.1-3.74-.94-3.73-3.85.09-35.48.06-70.97.06-106.45,0-16.74.08-33.49-.07-50.23-.03-3.05.93-3.8,3.81-3.71,6.24.2,12.49.16,18.74.01,2.43-.06,3.29.65,3.22,3.15-.16,5.98-.05,11.97-.05,17.95Z"></path><path class="cls-4" d="M644.57,197.77c3.19,31.78,2.53,62.97-15.53,90.96-11.66,18.06-28.94,27.54-49.82,31.36-29.04,5.31-53.55-4.3-75.62-22.28-12.87-10.49-25.31-21.49-37.58-32.68-2.24-2.04-2.36-3,.44-4.73,14.98-9.24,29.84-18.67,44.67-28.14,1.95-1.25,3.03-1.14,4.68.58,11.21,11.65,23.51,21.94,37.4,30.35,31,18.78,57.64,5.07,73.08-15.81,9.72-13.15,14.73-28.21,17.37-44.17.3-1.81.61-3.62.92-5.43Z"></path><path class="cls-4" d="M267.77,254.07c-7.95-2.4-12.69-7.59-15.44-14.39-6.95-17.17-8.3-34.87-3.38-52.82,4.24-15.47,11.01-29.68,21.91-41.71,14.67-16.19,34.33-21.08,54.84-13.45,17.26,6.42,31.72,17.26,45.55,29.04,11.81,10.05,22.7,21.05,33.07,32.58,1.92,2.14,1.94,3.08-.7,4.65-13.09,7.78-26.09,15.73-39.03,23.77-2.38,1.48-3.38,1.35-5.1-1.13-11.21-16.19-24.65-30.17-42.04-39.8-6.84-3.79-14.47-6.31-22.32-4.67-14.96,3.13-25.32,12.53-31.57,26.22-5.87,12.86-4.43,26.08-.44,39.16,1.23,4.04,2.91,7.95,4.62,12.54Z"></path><path class="cls-3" d="M517.13,541.74c0,20.49-.07,40.98.08,61.47.02,3.3-.85,4.33-4.18,4.18-6.11-.27-12.24-.08-18.36-.08q-5.12,0-5.12-4.96c0-36.11,0-72.21,0-108.32,0-4.15-.46-8.2-1.65-12.19-3.39-11.44-12.96-19.15-24.9-20.09-8.16-.64-15.97.4-23.12,4.6-2.05,1.2-2.95.77-3.92-1.32-1.83-3.97-3.98-7.81-6.68-11.25-1.67-2.13-1.17-3.14.88-4.63,11.78-8.61,25.17-10.98,39.35-10.7,9.23.18,18.21,1.58,26.43,5.91,15.14,7.98,20.93,21.5,21.13,37.79.24,19.86.06,39.73.06,59.59Z"></path><path class="cls-4" d="M223.06,525.15c0-25.98.07-51.95-.08-77.93-.02-3.35.88-4.24,4.16-4.1,6.36.27,12.74.22,19.1.02,2.76-.09,3.65.63,3.6,3.5-.17,11.11-.07,22.23-.07,33.34,0,41.09-.04,82.18.08,123.26,0,3.31-.83,4.29-4.16,4.15-6.23-.28-12.49-.24-18.73-.01-3.08.11-4-.76-3.98-3.93.13-26.1.07-52.2.07-78.3Z"></path><path class="cls-1" d="M222.75,397.89c0-4.49.08-8.99-.04-13.48-.05-2.1.65-2.85,2.79-2.82,7.11.1,14.23.11,21.34,0,2.32-.04,3,.79,2.98,3.05-.1,9.11-.1,18.22,0,27.33.02,2.17-.74,2.77-2.82,2.74-7.24-.1-14.48-.1-21.71,0-1.97.02-2.61-.65-2.57-2.58.1-4.74.03-9.48.03-14.23Z"></path><path class="cls-4" d="M178.32,483.31c-9.23-25-26.96-40.83-54.08-44.22-23.89-2.99-44.2,3.85-59.28,23.49-.91,1.19-1.89,2.32-3.37,4.12,0-7.32-.15-13.69.07-20.05.1-2.91-.88-3.61-3.62-3.51-5.62.2-11.26.31-16.86-.03-3.71-.23-4.48.98-4.47,4.54.11,69.73.08,139.46.08,209.19,0,5.37.09,10.75-.04,16.12-.05,2.13.65,2.77,2.75,2.73,6.75-.12,13.5-.22,20.24.04,3.15.12,3.91-.8,3.89-3.91-.13-25.37-.08-50.73-.05-76.1,0-1.31-.4-2.7.34-3.95,1.34-.13,1.73,1.02,2.32,1.69,17.52,19.63,39.64,24.54,64.42,19.37,24.74-5.15,40.37-21.28,48.55-44.38,10.01-28.3,9.5-57.05-.87-85.14ZM147.47,568.89c-17.43,28.13-60.01,29.81-75.6-3.81-12.07-26.03-11.81-52.88.92-78.81,7.18-14.63,19.54-22.77,36.22-23.07,17.45-.32,30.39,7.61,39.15,22.46,7.59,12.85,9.8,27.06,9.89,40.1-.02,16.36-2.71,30.43-10.59,43.13Z"></path><path class="cls-4" d="M858.79,592.32c-11.03.91-15.85-3.85-15.85-14.97,0-14.87,0-29.73,0-47.93-.3-13.78.15-30.89-.25-48-.48-20.46-12.46-32.76-28.84-38.06-20.97-6.78-42.35-6.93-63.47-.83-24.17,6.97-36.34,22.75-36.93,46.26-.06,2.33.51,3.11,2.83,3.07,7-.1,13.99-.12,20.99.01,2.43.05,3.02-.87,3.42-3.18,2.04-11.99,8.49-20.39,20.55-23.65,12.83-3.47,25.74-3.38,38.4.7,9.72,3.13,16.01,9.55,16.57,20.33.16,3.11.03,6.24-.11,9.35-.29,6.52-3.92,10.53-9.83,12.77-5.41,2.05-11.09,2.91-16.77,3.69-14.09,1.92-28.29,3.19-42.19,6.33-11.76,2.65-22.55,7.41-30.75,16.67-9.46,10.68-11.52,23.58-10.21,37.16,1.69,17.46,10.48,30.22,26.73,37.24,15.37,6.64,31.3,6.86,47.35,2.87,12.5-3.11,23.11-9.83,32.83-18.08,3.73-3.17,3.7-3.21,4.76,1.4,2.7,11.75,8.74,17.29,20.71,18.85,7.42.97,14.68-.18,21.89-1.89,1.82-.43,2.28-1.45,2.23-3.2-.11-4.37-.25-8.76.04-13.11.22-3.33-.65-4.08-4.08-3.8ZM807.33,575.33c-16.57,15.15-35.62,20.02-57.14,13.45-9.74-2.98-15.16-10.21-16.15-20.42-1-10.26,2.14-18.74,11.29-24.3,9.87-5.99,21.03-7.5,32.15-9.14,11.22-1.65,22.58-2.57,33.41-6.31q5.41-1.87,5.41,4.05c0,3.62,0,7.24,0,10.86s-.08,7,.02,10.49c.24,8.49-2.68,15.55-8.99,21.32Z"></path></g></svg>